PathFileType	4	(X/Y/Z)	/Users/niels/Desktop/University/Third Semester/Perception and Action/Exam/Gymnastics Motion Tracking/Code for Gym Tracking/Analyzed Data/Webcam_Backflip/id2002_1_baseline_Sports2D/id2002_1_baseline_Sports2D_px_person00.trc
DataRate	CameraRate	NumFrames	NumMarkers	Units	OrigDataRate	OrigDataStartFrame	OrigNumFrames
29.759999999999998	29.759999999999998	13	22	m	29.759999999999998	83	125
Frame#	Time	Hip			RHip			RKnee			RAnkle			RBigToe			RSmallToe			RHeel			LHip			LKnee			LAnkle			LBigToe			LSmallToe			LHeel			Neck			Head			Nose			RShoulder			RElbow			RWrist			LShoulder			LElbow			LWrist		
		X1	Y1	Z1	X2	Y2	Z2	X3	Y3	Z3	X4	Y4	Z4	X5	Y5	Z5	X6	Y6	Z6	X7	Y7	Z7	X8	Y8	Z8	X9	Y9	Z9	X10	Y10	Z10	X11	Y11	Z11	X12	Y12	Z12	X13	Y13	Z13	X14	Y14	Z14	X15	Y15	Z15	X16	Y16	Z16	X17	Y17	Z17	X18	Y18	Z18	X19	Y19	Z19	X20	Y20	Z20	X21	Y21	Z21	X22	Y22	Z22
83	2.7889784946236564	1.0177874841052725	-0.9023496862982127	0.0	1.0277098783545022	-0.900296601153312	0.0	1.0473245893776695	-1.0632925388257009	0.0			0.0			0.0			0.0			0.0	0.9794803174563769	-0.8968581401905137	0.0	1.0023299371815506	-1.0638900163728175	0.0			0.0			0.0			0.0			0.0	1.2320997542620247	-0.5021195049918022	0.0	1.3655639606065706	-0.3729297655045881	0.0	1.3432442479191504	-0.4628311965609724	0.0	1.2441903548063806	-0.516523060020213	0.0	1.243193748912865	-0.7351462358856629	0.0	1.3166817237771595	-0.9148089307989615	0.0	1.1747903046338706	-0.5157802558149981	0.0	1.1180072559243899	-0.7477346244110028	0.0	1.2014648761892075	-0.9039707173701076	0.0
84	2.822580645161291	1.0183330806763051	-0.901972743242578	0.0	1.0280266575881318	-0.8993911567597628	0.0	1.0451971938368338	-1.0640035714412015	0.0			0.0			0.0			0.0			0.0	0.9802008620536321	-0.896111084166932	0.0	1.002603550668525	-1.0639623359814432	0.0			0.0			0.0			0.0			0.0	1.231117475960912	-0.5019146517384891	0.0	1.364337417481477	-0.3721871941276973	0.0	1.342192688488399	-0.4616836719682597	0.0	1.2433093225229248	-0.5158244202611373	0.0	1.244481238043976	-0.7343410708565616	0.0	1.319828755023185	-0.912916430030354	0.0	1.17423900819482	-0.5159111237330393	0.0	1.1183623772015734	-0.7461134530852306	0.0	1.201504753062542	-0.9021153713668371	0.0
85	2.856182795698925	1.0198154058612794	-0.9010526348512509	0.0	1.0293738364986602	-0.8981704084295046	0.0	1.0453862755969772	-1.0651721967776917	0.0			0.0			0.0			0.0			0.0	0.9822937486982081	-0.8949745040932031	0.0	1.004896037489189	-1.064060749092127	0.0			0.0			0.0			0.0			0.0	1.2286691554897127	-0.49978876894373203	0.0	1.3599313779026436	-0.368658662210633	0.0	1.3386760572328325	-0.4578813611884547	0.0	1.2403065553017276	-0.5131166158288106	0.0	1.2434967154374628	-0.7301824360379703	0.0	1.3207914252416504	-0.9085946452495273	0.0	1.1721900190066499	-0.5151841185720115	0.0	1.1188116883813042	-0.7422036091632042	0.0	1.2002024270886722	-0.9001411567853141	0.0
86	2.8897849462365595	1.0221216182307167	-0.8997486261393067	0.0	1.0316869611517374	-0.8967438696913397	0.0	1.0487810301276688	-1.0665444837109341	0.0			0.0			0.0			0.0			0.0	0.9855615078002468	-0.8935299310467373	0.0	1.0110002777448552	-1.0641889692701054	0.0			0.0			0.0			0.0			0.0	1.2248272014444102	-0.49584431338562207	0.0	1.3526571004070802	-0.3627141003670409	0.0	1.3329348728834718	-0.45167228683154875	0.0	1.235564913398684	-0.5085534399395538	0.0	1.2404177725839742	-0.7231111424995187	0.0	1.3197439073158066	-0.9020439297547185	0.0	1.1688578802265615	-0.5134378308675653	0.0	1.1189324849347317	-0.7366538227268355	0.0	1.1977975953213549	-0.8983170079410199	0.0
87	2.923387096774194	1.025222007054131	-0.8982398348493182	0.0	1.0350063951529693	-0.8953558930660465	0.0	1.0558537708827422	-1.0678204568061975	0.0			0.0			0.0			0.0			0.0	0.9898078112410711	-0.8920216438925607	0.0	1.0226153443579165	-1.0643501988502646	0.0			0.0			0.0			0.0			0.0	1.2197268605386773	-0.4903484366903508	0.0	1.3430858085979325	-0.355013990677729	0.0	1.325449971300937	-0.44365308370781875	0.0	1.2295409988053825	-0.5023503505149147	0.0	1.23551236076875	-0.7137390448555319	0.0	1.3169254948133786	-0.893468443224088	0.0	1.1646542224902154	-0.5104928717693278	0.0	1.1182895889510565	-0.7299388706348812	0.0	1.1944706056026573	-0.896498370448371	0.0
88	2.9569892473118284	1.0291970342026115	-0.8966948641840463	0.0	1.039526208743104	-0.8943269184175549	0.0	1.0661915337460437	-1.0686828342117534	0.0			0.0			0.0			0.0			0.0	0.995057543923626	-0.8908607866977201	0.0	1.0401201058041958	-1.0645242330994127	0.0			0.0			0.0			0.0			0.0	1.2135250962841577	-0.483721407704323	0.0	1.3319015326765609	-0.3463703257586763	0.0	1.3167898478253686	-0.4346707341498921	0.0	1.2225276419234792	-0.4948972682683413	0.0	1.229153293084956	-0.7028088779927347	0.0	1.312658663232768	-0.8831904584795772	0.0	1.1598811239918478	-0.506353129751826	0.0	1.1166245832385304	-0.7221590726231925	0.0	1.1903155681716813	-0.8938563339928242	0.0
89	2.990591397849463	1.034032240645507	-0.8953634425883495	0.0	1.0453957980821824	-0.8940439525333782	0.0	1.0785540013524384	-1.068902331959864	0.0			0.0			0.0			0.0			0.0	1.0012989444065963	-0.8905401407589393	0.0	1.0604913347639573	-1.0646408067861612	0.0			0.0			0.0			0.0			0.0	1.2063096284902808	-0.4764828547439408	0.0	1.3197312721882697	-0.3376031446937025	0.0	1.307379071767254	-0.425588993842302	0.0	1.214620659163258	-0.4868042682801973	0.0	1.2217988462266252	-0.6911207410959898	0.0	1.3073204773032783	-0.8716753224180614	0.0	1.1545085882379353	-0.501271133286953	0.0	1.1137138694294941	-0.7132341485512838	0.0	1.1852923417756356	-0.889176467226199	0.0
90	3.0241935483870974	1.039581655277032	-0.8945506795594735	0.0	1.0526343837131056	-0.8948054174025883	0.0	1.091387029513795	-1.0684434031299017	0.0			0.0			0.0			0.0			0.0	1.0082457998849648	-0.8914237770847907	0.0	1.077104110453849	-1.0645618421579541	0.0			0.0			0.0			0.0			0.0	1.198127326887178	-0.46921262965129334	0.0	1.3070222310428738	-0.3293923895915308	0.0	1.2974123973028722	-0.4170775484267309	0.0	1.2058401992541394	-0.4788064959096557	0.0	1.2139355275635613	-0.6794463988061545	0.0	1.3012860358641163	-0.8594923543251805	0.0	1.148355996340072	-0.4956963353036453	0.0	1.1094139826369058	-0.7035092630229249	0.0	1.1794648952081925	-0.8819277404386877	0.0
91	3.0577956989247315	1.045837073769791	-0.8943026887577752	0.0	1.0612693340519466	-0.8964272244036409	0.0	1.1033082422104725	-1.0674768040857483	0.0			0.0			0.0			0.0			0.0	1.015626226418582	-0.8933682565074322	0.0	1.0846800043759293	-1.064124997084118	0.0			0.0			0.0			0.0			0.0	1.189148534168709	-0.46249273705470556	0.0	1.2940619825328528	-0.3221630200235324	0.0	1.2869855778168353	-0.40952706926769605	0.0	1.1962638890890922	-0.4715861828301407	0.0	1.2059800682394868	-0.6684518865614394	0.0	1.294903879516962	-0.8473101673977466	0.0	1.1413750901309738	-0.49018023709216907	0.0	1.1040037709888415	-0.694066552901887	0.0	1.1733552360378956	-0.8728509530487737	0.0
92	3.091397849462366	1.0529661508902441	-0.894232397372336	0.0	1.0713195282928738	-0.898205465790183	0.0	1.1133120691393323	-1.066304828243729	0.0			0.0			0.0			0.0			0.0	1.0234314547063643	-0.8956515716820467	0.0	1.0835466761231756	-1.0632709102890363	0.0			0.0			0.0			0.0			0.0	1.1797540519732903	-0.45678595977066483	0.0	1.2810838637860862	-0.31600405780619456	0.0	1.27623307193596	-0.40310100931526427	0.0	1.1861146647501202	-0.4656185251886829	0.0	1.1982139889907877	-0.6587019106793162	0.0	1.2885124189439896	-0.8358861367840131	0.0	1.1336832344435674	-0.4852523980129657	0.0	1.0981674755410646	-0.6861720734901148	0.0	1.1678012863868887	-0.8632120882258265	0.0
93	3.1250000000000004	1.0609678239436149	-0.8937967377229307	0.0	1.0825320043156363	-0.8993773696255901	0.0	1.12103626710226	-1.0652273926523739	0.0			0.0			0.0			0.0			0.0	1.0316863050595941	-0.8973954616085448	0.0	1.0774701579678314	-1.0621468094773663	0.0			0.0			0.0			0.0			0.0	1.170408711605123	-0.4523645106739211	0.0	1.2683801780171875	-0.3107451190345138	0.0	1.2653620580131582	-0.3978796018690911	0.0	1.1757674290131088	-0.46113760403010373	0.0	1.1907786891795835	-0.6506985775372518	0.0	1.2824123119542072	-0.8259423561896723	0.0	1.1254885394489278	-0.48130794037762853	0.0	1.0925700630653048	-0.6805620123577529	0.0	1.163544959904668	-0.8540244212600933	0.0
94	3.158602150537635	1.0693725510195764	-0.8927323823846083	0.0	1.0940958298192336	-0.8994958225830392	0.0	1.127031853044907	-1.0644367725668034	0.0			0.0			0.0			0.0			0.0	1.040125722732812	-0.898036474643181	0.0	1.0702697781008415	-1.0610919526619476	0.0			0.0			0.0			0.0			0.0	1.1614648405281045	-0.4493568027002203	0.0	1.2563652600103081	-0.30622205132244074	0.0	1.2546337818294637	-0.39394195050383074	0.0	1.1656567229348447	-0.4581758935137892	0.0	1.1836843365745708	-0.6448188426184781	0.0	1.2767692616232809	-0.8179911095591901	0.0	1.1170706948824602	-0.4785604779849052	0.0	1.0874944163084186	-0.6772891462670447	0.0	1.1609179864429682	-0.8459655989488962	0.0
95	3.1922043010752694	1.0772491687439063	-0.8913311359167764	0.0	1.1047337729029159	-0.8986658860271564	0.0	1.1323704483880186	-1.0640147740222974	0.0			0.0			0.0			0.0			0.0	1.0480697235022622	-0.89767093336789	0.0	1.0645340503718796	-1.0604928636195166	0.0			0.0			0.0			0.0			0.0	1.153101359073463	-0.4477742596518091	0.0	1.2454664711390182	-0.30242826200652334	0.0	1.2443446644152116	-0.39131552940347414	0.0	1.156166040470967	-0.45657256037513966	0.0	1.1768147762774348	-0.641176687938012	0.0	1.2715562836419312	-0.8122469340943218	0.0	1.1087080953691446	-0.4770907195565932	0.0	1.0826396223422685	-0.6759297011726475	0.0	1.1595010164098092	-0.8393388387514478	0.0
